<svg width="1138" height="138" viewBox="0 0 1138 138" fill="none" xmlns="http://www.w3.org/2000/svg">
<g opacity="0.13" filter="url(#filter0_b_138_459)">
<path d="M49.996 79.655H25.166V136H0.718001V2.29999H25.166V58.263H50.76L89.151 2.29999H115.509L69.86 67.049L117.228 136H89.151L49.996 79.655ZM198.458 137.91C184.834 137.91 172.546 134.981 161.595 129.124C150.645 123.139 142.05 114.926 135.81 104.485C129.571 93.9163 126.451 82.138 126.451 69.15C126.451 56.162 129.571 44.4473 135.81 34.006C142.05 23.4373 150.645 15.2243 161.595 9.36699C172.546 3.38233 184.834 0.389993 198.458 0.389993C212.083 0.389993 224.371 3.38233 235.321 9.36699C246.272 15.2243 254.867 23.3737 261.106 33.815C267.346 44.2563 270.465 56.0347 270.465 69.15C270.465 82.2653 267.346 94.0437 261.106 104.485C254.867 114.926 246.272 123.139 235.321 129.124C224.371 134.981 212.083 137.91 198.458 137.91ZM198.458 116.136C207.372 116.136 215.394 114.162 222.524 110.215C229.655 106.14 235.258 100.538 239.332 93.407C243.407 86.149 245.444 78.0633 245.444 69.15C245.444 60.2367 243.407 52.2147 239.332 45.084C235.258 37.826 229.655 32.2233 222.524 28.276C215.394 24.2013 207.372 22.164 198.458 22.164C189.545 22.164 181.523 24.2013 174.392 28.276C167.262 32.2233 161.659 37.826 157.584 45.084C153.51 52.2147 151.472 60.2367 151.472 69.15C151.472 78.0633 153.51 86.149 157.584 93.407C161.659 100.538 167.262 106.14 174.392 110.215C181.523 114.162 189.545 116.136 198.458 116.136ZM419.584 2.29999V136H394.754V78.7H325.612V136H300.782V2.29999H325.612V57.499H394.754V2.29999H419.584ZM556.982 23.31H512.67V136H488.031V23.31H443.91V2.29999H556.982V23.31ZM663.17 105.058H596.32L583.141 136H557.547L617.712 2.29999H642.16L702.516 136H676.54L663.17 105.058ZM654.957 85.576L629.745 27.13L604.724 85.576H654.957ZM775.162 79.655H750.332V136H725.884V2.29999H750.332V58.263H775.926L814.317 2.29999H840.675L795.026 67.049L842.394 136H814.317L775.162 79.655ZM957.835 23.31H913.523V136H888.884V23.31H844.763V2.29999H957.835V23.31ZM1043.81 47.567C1059.85 47.567 1072.14 51.196 1080.67 58.454C1089.33 65.5847 1093.66 76.217 1093.66 90.351C1093.66 105.122 1088.95 116.454 1079.52 124.349C1070.1 132.116 1056.86 136 1039.8 136H982.306V2.29999H1006.75V47.567H1043.81ZM1038.65 116.9C1048.33 116.9 1055.78 114.672 1061 110.215C1066.22 105.758 1068.83 99.2643 1068.83 90.733C1068.83 74.5617 1058.77 66.476 1038.65 66.476H1006.75V116.9H1038.65ZM1112.95 2.29999H1137.4V136H1112.95V2.29999Z" fill="#24262A" fill-opacity="0.19"/>
<path d="M49.996 79.655L51.6384 78.5137L51.0417 77.655H49.996V79.655ZM25.166 79.655V77.655H23.166V79.655H25.166ZM25.166 136V138H27.166V136H25.166ZM0.718 136H-1.282V138H0.718V136ZM0.718 2.29999V0.299992H-1.282V2.29999H0.718ZM25.166 2.29999H27.166V0.299992H25.166V2.29999ZM25.166 58.263H23.166V60.263H25.166V58.263ZM50.76 58.263V60.263H51.8134L52.4092 59.3944L50.76 58.263ZM89.151 2.29999V0.299992H88.0977L87.5018 1.16861L89.151 2.29999ZM115.509 2.29999L117.144 3.45241L119.366 0.299992H115.509V2.29999ZM69.86 67.049L68.2254 65.8966L67.4234 67.0342L68.2115 68.1815L69.86 67.049ZM117.228 136V138H121.028L118.876 134.868L117.228 136ZM89.151 136L87.5086 137.141L88.1053 138H89.151V136ZM49.996 77.655H25.166V81.655H49.996V77.655ZM23.166 79.655V136H27.166V79.655H23.166ZM25.166 134H0.718V138H25.166V134ZM2.718 136V2.29999H-1.282V136H2.718ZM0.718 4.29999H25.166V0.299992H0.718V4.29999ZM23.166 2.29999V58.263H27.166V2.29999H23.166ZM25.166 60.263H50.76V56.263H25.166V60.263ZM52.4092 59.3944L90.8002 3.43138L87.5018 1.16861L49.1108 57.1316L52.4092 59.3944ZM89.151 4.29999H115.509V0.299992H89.151V4.29999ZM113.874 1.14757L68.2254 65.8966L71.4946 68.2014L117.144 3.45241L113.874 1.14757ZM68.2115 68.1815L115.58 137.132L118.876 134.868L71.5085 65.9165L68.2115 68.1815ZM117.228 134H89.151V138H117.228V134ZM90.7934 134.859L51.6384 78.5137L48.3536 80.7963L87.5086 137.141L90.7934 134.859ZM161.595 129.124L160.636 130.879L160.644 130.883L160.652 130.888L161.595 129.124ZM135.81 104.485L134.088 105.502L134.093 105.511L135.81 104.485ZM135.81 34.006L137.527 35.0319L137.532 35.0228L135.81 34.006ZM161.595 9.36699L162.539 11.1306L162.546 11.1263L162.554 11.122L161.595 9.36699ZM235.321 9.36699L234.362 11.122L234.37 11.1263L234.378 11.1306L235.321 9.36699ZM261.106 33.815L262.823 32.7891L261.106 33.815ZM261.106 104.485L262.823 105.511L261.106 104.485ZM235.321 129.124L236.265 130.888L236.272 130.883L236.28 130.879L235.321 129.124ZM222.524 110.215L223.493 111.965L223.505 111.958L223.516 111.951L222.524 110.215ZM239.332 93.407L241.069 94.3993L241.072 94.3927L241.076 94.3861L239.332 93.407ZM239.332 45.084L237.588 46.0631L237.592 46.0697L237.596 46.0763L239.332 45.084ZM222.524 28.276L221.532 30.0125L221.544 30.0192L221.556 30.0258L222.524 28.276ZM174.392 28.276L175.361 30.0258L175.373 30.0192L175.384 30.0125L174.392 28.276ZM157.584 45.084L159.321 46.0763L159.324 46.0697L159.328 46.0631L157.584 45.084ZM157.584 93.407L155.84 94.3861L155.844 94.3927L155.848 94.3993L157.584 93.407ZM174.392 110.215L173.4 111.951L173.412 111.958L173.424 111.965L174.392 110.215ZM198.458 135.91C185.13 135.91 173.172 133.048 162.539 127.36L160.652 130.888C171.92 136.915 184.537 139.91 198.458 139.91V135.91ZM162.554 127.369C151.908 121.551 143.578 113.586 137.527 103.459L134.093 105.511C140.521 116.267 149.381 124.728 160.636 130.879L162.554 127.369ZM137.532 103.468C131.486 93.2257 128.451 81.802 128.451 69.15H124.451C124.451 82.474 127.656 94.607 134.088 105.502L137.532 103.468ZM128.451 69.15C128.451 56.4978 131.486 45.142 137.527 35.0319L134.093 32.9801C127.656 43.7527 124.451 55.8262 124.451 69.15H128.451ZM137.532 35.0228C143.583 24.7736 151.907 16.8172 162.539 11.1306L160.652 7.60342C149.382 13.6314 140.516 22.101 134.088 32.9892L137.532 35.0228ZM162.554 11.122C173.184 5.31255 185.137 2.38999 198.458 2.38999V-1.61001C184.53 -1.61001 171.907 1.4521 160.636 7.61198L162.554 11.122ZM198.458 2.38999C211.779 2.38999 223.732 5.31255 234.362 11.122L236.28 7.61198C225.009 1.4521 212.387 -1.61001 198.458 -1.61001V2.38999ZM234.378 11.1306C245.016 16.8205 253.34 24.7179 259.389 34.8409L262.823 32.7891C256.394 22.0294 247.528 13.6281 236.265 7.60342L234.378 11.1306ZM259.389 34.8409C265.429 44.9479 268.465 56.3666 268.465 69.15H272.465C272.465 55.7027 269.262 43.5648 262.823 32.7891L259.389 34.8409ZM268.465 69.15C268.465 81.9333 265.429 93.3521 259.389 103.459L262.823 105.511C269.262 94.7352 272.465 82.5973 272.465 69.15H268.465ZM259.389 103.459C253.338 113.586 245.008 121.551 234.362 127.369L236.28 130.879C247.536 124.728 256.396 116.267 262.823 105.511L259.389 103.459ZM234.378 127.36C223.745 133.048 211.786 135.91 198.458 135.91V139.91C212.379 139.91 224.996 136.915 236.265 130.888L234.378 127.36ZM198.458 118.136C207.678 118.136 216.039 116.091 223.493 111.965L221.556 108.465C214.749 112.233 207.065 114.136 198.458 114.136V118.136ZM223.516 111.951C230.957 107.7 236.817 101.84 241.069 94.3993L237.596 92.4147C233.698 99.2353 228.353 104.581 221.532 108.479L223.516 111.951ZM241.076 94.3861C245.331 86.8079 247.444 78.3811 247.444 69.15H243.444C243.444 77.7455 241.483 85.4901 237.588 92.4279L241.076 94.3861ZM247.444 69.15C247.444 59.9192 245.331 51.5501 241.069 44.0917L237.596 46.0763C241.483 52.8793 243.444 60.5541 243.444 69.15H247.444ZM241.076 44.1049C236.824 36.5303 230.956 30.6574 223.493 26.5262L221.556 30.0258C228.354 33.7892 233.691 39.1217 237.588 46.0631L241.076 44.1049ZM223.516 26.5395C216.058 22.2776 207.689 20.164 198.458 20.164V24.164C207.054 24.164 214.729 26.1251 221.532 30.0125L223.516 26.5395ZM198.458 20.164C189.227 20.164 180.858 22.2776 173.4 26.5395L175.384 30.0125C182.187 26.1251 189.862 24.164 198.458 24.164V20.164ZM173.424 26.5262C165.961 30.6574 160.093 36.5303 155.84 44.1049L159.328 46.0631C163.225 39.1217 168.562 33.7892 175.361 30.0258L173.424 26.5262ZM155.848 44.0917C151.586 51.5501 149.472 59.9192 149.472 69.15H153.472C153.472 60.5541 155.433 52.8793 159.321 46.0763L155.848 44.0917ZM149.472 69.15C149.472 78.3811 151.586 86.8079 155.84 94.3861L159.328 92.4279C155.433 85.4901 153.472 77.7455 153.472 69.15H149.472ZM155.848 94.3993C160.1 101.84 165.959 107.7 173.4 111.951L175.384 108.479C168.564 104.581 163.218 99.2353 159.321 92.4147L155.848 94.3993ZM173.424 111.965C180.878 116.091 189.239 118.136 198.458 118.136V114.136C189.851 114.136 182.168 112.233 175.361 108.465L173.424 111.965ZM419.584 2.29999H421.584V0.299992H419.584V2.29999ZM419.584 136V138H421.584V136H419.584ZM394.754 136H392.754V138H394.754V136ZM394.754 78.7H396.754V76.7H394.754V78.7ZM325.612 78.7V76.7H323.612V78.7H325.612ZM325.612 136V138H327.612V136H325.612ZM300.782 136H298.782V138H300.782V136ZM300.782 2.29999V0.299992H298.782V2.29999H300.782ZM325.612 2.29999H327.612V0.299992H325.612V2.29999ZM325.612 57.499H323.612V59.499H325.612V57.499ZM394.754 57.499V59.499H396.754V57.499H394.754ZM394.754 2.29999V0.299992H392.754V2.29999H394.754ZM417.584 2.29999V136H421.584V2.29999H417.584ZM419.584 134H394.754V138H419.584V134ZM396.754 136V78.7H392.754V136H396.754ZM394.754 76.7H325.612V80.7H394.754V76.7ZM323.612 78.7V136H327.612V78.7H323.612ZM325.612 134H300.782V138H325.612V134ZM302.782 136V2.29999H298.782V136H302.782ZM300.782 4.29999H325.612V0.299992H300.782V4.29999ZM323.612 2.29999V57.499H327.612V2.29999H323.612ZM325.612 59.499H394.754V55.499H325.612V59.499ZM396.754 57.499V2.29999H392.754V57.499H396.754ZM394.754 4.29999H419.584V0.299992H394.754V4.29999ZM556.982 23.31V25.31H558.982V23.31H556.982ZM512.67 23.31V21.31H510.67V23.31H512.67ZM512.67 136V138H514.67V136H512.67ZM488.031 136H486.031V138H488.031V136ZM488.031 23.31H490.031V21.31H488.031V23.31ZM443.91 23.31H441.91V25.31H443.91V23.31ZM443.91 2.29999V0.299992H441.91V2.29999H443.91ZM556.982 2.29999H558.982V0.299992H556.982V2.29999ZM556.982 21.31H512.67V25.31H556.982V21.31ZM510.67 23.31V136H514.67V23.31H510.67ZM512.67 134H488.031V138H512.67V134ZM490.031 136V23.31H486.031V136H490.031ZM488.031 21.31H443.91V25.31H488.031V21.31ZM445.91 23.31V2.29999H441.91V23.31H445.91ZM443.91 4.29999H556.982V0.299992H443.91V4.29999ZM554.982 2.29999V23.31H558.982V2.29999H554.982ZM663.17 105.058L665.006 104.265L664.485 103.058H663.17V105.058ZM596.32 105.058V103.058H594.998L594.48 104.274L596.32 105.058ZM583.141 136V138H584.463L584.981 136.784L583.141 136ZM557.547 136L555.723 135.179L554.454 138H557.547V136ZM617.712 2.29999V0.299992H616.419L615.888 1.47926L617.712 2.29999ZM642.16 2.29999L643.983 1.4771L643.452 0.299992H642.16V2.29999ZM702.516 136V138H705.613L704.339 135.177L702.516 136ZM676.54 136L674.704 136.793L675.226 138H676.54V136ZM654.957 85.576V87.576H657.998L656.794 84.7838L654.957 85.576ZM629.745 27.13L631.582 26.3378L629.738 22.0645L627.907 26.3429L629.745 27.13ZM604.724 85.576L602.886 84.7889L601.692 87.576H604.724V85.576ZM663.17 103.058H596.32V107.058H663.17V103.058ZM594.48 104.274L581.301 135.216L584.981 136.784L598.16 105.842L594.48 104.274ZM583.141 134H557.547V138H583.141V134ZM559.371 136.821L619.536 3.12072L615.888 1.47926L555.723 135.179L559.371 136.821ZM617.712 4.29999H642.16V0.299992H617.712V4.29999ZM640.337 3.12289L700.693 136.823L704.339 135.177L643.983 1.4771L640.337 3.12289ZM702.516 134H676.54V138H702.516V134ZM678.376 135.207L665.006 104.265L661.334 105.851L674.704 136.793L678.376 135.207ZM656.794 84.7838L631.582 26.3378L627.909 27.9222L653.121 86.3682L656.794 84.7838ZM627.907 26.3429L602.886 84.7889L606.563 86.3631L631.584 27.9171L627.907 26.3429ZM604.724 87.576H654.957V83.576H604.724V87.576ZM775.162 79.655L776.804 78.5137L776.208 77.655H775.162V79.655ZM750.332 79.655V77.655H748.332V79.655H750.332ZM750.332 136V138H752.332V136H750.332ZM725.884 136H723.884V138H725.884V136ZM725.884 2.29999V0.299992H723.884V2.29999H725.884ZM750.332 2.29999H752.332V0.299992H750.332V2.29999ZM750.332 58.263H748.332V60.263H750.332V58.263ZM775.926 58.263V60.263H776.979L777.575 59.3944L775.926 58.263ZM814.317 2.29999V0.299992H813.263L812.668 1.16861L814.317 2.29999ZM840.675 2.29999L842.309 3.45241L844.532 0.299992H840.675V2.29999ZM795.026 67.049L793.391 65.8966L792.589 67.0342L793.377 68.1815L795.026 67.049ZM842.394 136V138H846.194L844.042 134.868L842.394 136ZM814.317 136L812.674 137.141L813.271 138H814.317V136ZM775.162 77.655H750.332V81.655H775.162V77.655ZM748.332 79.655V136H752.332V79.655H748.332ZM750.332 134H725.884V138H750.332V134ZM727.884 136V2.29999H723.884V136H727.884ZM725.884 4.29999H750.332V0.299992H725.884V4.29999ZM748.332 2.29999V58.263H752.332V2.29999H748.332ZM750.332 60.263H775.926V56.263H750.332V60.263ZM777.575 59.3944L815.966 3.43138L812.668 1.16861L774.277 57.1316L777.575 59.3944ZM814.317 4.29999H840.675V0.299992H814.317V4.29999ZM839.04 1.14757L793.391 65.8966L796.66 68.2014L842.309 3.45241L839.04 1.14757ZM793.377 68.1815L840.745 137.132L844.042 134.868L796.674 65.9165L793.377 68.1815ZM842.394 134H814.317V138H842.394V134ZM815.959 134.859L776.804 78.5137L773.519 80.7963L812.674 137.141L815.959 134.859ZM957.835 23.31V25.31H959.835V23.31H957.835ZM913.523 23.31V21.31H911.523V23.31H913.523ZM913.523 136V138H915.523V136H913.523ZM888.884 136H886.884V138H888.884V136ZM888.884 23.31H890.884V21.31H888.884V23.31ZM844.763 23.31H842.763V25.31H844.763V23.31ZM844.763 2.29999V0.299992H842.763V2.29999H844.763ZM957.835 2.29999H959.835V0.299992H957.835V2.29999ZM957.835 21.31H913.523V25.31H957.835V21.31ZM911.523 23.31V136H915.523V23.31H911.523ZM913.523 134H888.884V138H913.523V134ZM890.884 136V23.31H886.884V136H890.884ZM888.884 21.31H844.763V25.31H888.884V21.31ZM846.763 23.31V2.29999H842.763V23.31H846.763ZM844.763 4.29999H957.835V0.299992H844.763V4.29999ZM955.835 2.29999V23.31H959.835V2.29999H955.835ZM1080.67 58.454L1079.37 59.9773L1079.39 59.9877L1079.4 59.9979L1080.67 58.454ZM1079.52 124.349L1080.8 125.892L1080.8 125.887L1080.81 125.882L1079.52 124.349ZM982.306 136H980.306V138H982.306V136ZM982.306 2.29999V0.299992H980.306V2.29999H982.306ZM1006.75 2.29999H1008.75V0.299992H1006.75V2.29999ZM1006.75 47.567H1004.75V49.567H1006.75V47.567ZM1061 110.215L1059.7 108.694L1061 110.215ZM1006.75 66.476V64.476H1004.75V66.476H1006.75ZM1006.75 116.9H1004.75V118.9H1006.75V116.9ZM1112.95 2.29999V0.299992H1110.95V2.29999H1112.95ZM1137.4 2.29999H1139.4V0.299992H1137.4V2.29999ZM1137.4 136V138H1139.4V136H1137.4ZM1112.95 136H1110.95V138H1112.95V136ZM1043.81 49.567C1059.58 49.567 1071.33 53.1365 1079.37 59.9773L1081.97 56.9307C1072.95 49.2555 1060.12 45.567 1043.81 45.567V49.567ZM1079.4 59.9979C1087.48 66.6528 1091.66 76.6455 1091.66 90.351H1095.66C1095.66 75.7885 1091.18 64.5165 1081.94 56.9101L1079.4 59.9979ZM1091.66 90.351C1091.66 104.661 1087.12 115.378 1078.24 122.816L1080.81 125.882C1090.78 117.53 1095.66 105.582 1095.66 90.351H1091.66ZM1078.25 122.806C1069.31 130.18 1056.58 134 1039.8 134V138C1057.14 138 1070.9 134.053 1080.8 125.892L1078.25 122.806ZM1039.8 134H982.306V138H1039.8V134ZM984.306 136V2.29999H980.306V136H984.306ZM982.306 4.29999H1006.75V0.299992H982.306V4.29999ZM1004.75 2.29999V47.567H1008.75V2.29999H1004.75ZM1006.75 49.567H1043.81V45.567H1006.75V49.567ZM1038.65 118.9C1048.61 118.9 1056.59 116.608 1062.3 111.736L1059.7 108.694C1054.96 112.736 1048.05 114.9 1038.65 114.9V118.9ZM1062.3 111.736C1068.07 106.81 1070.83 99.6952 1070.83 90.733H1066.83C1066.83 98.8335 1064.37 104.707 1059.7 108.694L1062.3 111.736ZM1070.83 90.733C1070.83 82.2092 1068.16 75.4978 1062.54 70.9814C1057 66.5321 1048.93 64.476 1038.65 64.476V68.476C1048.49 68.476 1055.51 70.4628 1060.03 74.0991C1064.47 77.6683 1066.83 83.0855 1066.83 90.733H1070.83ZM1038.65 64.476H1006.75V68.476H1038.65V64.476ZM1004.75 66.476V116.9H1008.75V66.476H1004.75ZM1006.75 118.9H1038.65V114.9H1006.75V118.9ZM1112.95 4.29999H1137.4V0.299992H1112.95V4.29999ZM1135.4 2.29999V136H1139.4V2.29999H1135.4ZM1137.4 134H1112.95V138H1137.4V134ZM1114.95 136V2.29999H1110.95V136H1114.95Z" fill="url(#paint0_linear_138_459)"/>
</g>
<defs>
<filter id="filter0_b_138_459" x="-71.482" y="-71.8101" width="1281.08" height="281.92" filterUnits="userSpaceOnUse" color-interpolation-filters="sRGB">
<feFlood flood-opacity="0" result="BackgroundImageFix"/>
<feGaussianBlur in="BackgroundImageFix" stdDeviation="36.1"/>
<feComposite in2="SourceAlpha" operator="in" result="effect1_backgroundBlur_138_459"/>
<feBlend mode="normal" in="SourceGraphic" in2="effect1_backgroundBlur_138_459" result="shape"/>
</filter>
<linearGradient id="paint0_linear_138_459" x1="119.083" y1="-10.5333" x2="174.018" y2="303.822" gradientUnits="userSpaceOnUse">
<stop stop-color="#9E23FF"/>
<stop offset="0.505208" stop-color="#5A7FFF"/>
<stop offset="1" stop-color="#79AFFF"/>
</linearGradient>
</defs>
</svg>
