<svg width="19" height="19" viewBox="0 0 19 19" fill="none" xmlns="http://www.w3.org/2000/svg">
<path d="M5.59326 0.180923C5.09122 0.384089 4.83774 0.933086 4.98146 1.45639C6.07478 5.42662 4.28473 9.65078 0.671691 11.626C0.19538 11.8857 -0.0228975 12.4494 0.180895 12.953C0.384197 13.4554 0.933057 13.7086 1.45596 13.564C5.42632 12.4717 9.64987 14.2608 11.6259 17.8752C11.8866 18.3512 12.4501 18.5682 12.9521 18.365C13.4544 18.1617 13.7081 17.614 13.5647 17.0906C12.4706 13.1193 14.2611 8.89635 17.8737 6.91992C18.35 6.66017 18.5683 6.0965 18.365 5.59413C18.1612 5.09055 17.6123 4.83734 17.0894 4.98195C13.1195 6.07544 8.8955 4.28511 6.92021 0.671805C6.65924 0.19595 6.09559 -0.0223662 5.59326 0.180923Z" fill="white"/>
</svg>
