<svg width="19" height="19" viewBox="0 0 19 19" fill="none" xmlns="http://www.w3.org/2000/svg">
<path d="M6.09203 0.67897C5.59 0.882136 5.33652 1.43113 5.48024 1.95444C6.57356 5.92467 4.78351 10.1488 1.17047 12.124C0.694159 12.3838 0.475882 12.9475 0.679674 13.451C0.882977 13.9534 1.43184 14.2066 1.95474 14.062C5.9251 12.9697 10.1486 14.7589 12.1247 18.3732C12.3854 18.8492 12.9489 19.0662 13.4509 18.863C13.9532 18.6597 14.2069 18.1121 14.0635 17.5887C12.9694 13.6173 14.7599 9.3944 18.3725 7.41797C18.8488 7.15822 19.067 6.59455 18.8637 6.09218C18.66 5.5886 18.1111 5.33538 17.5882 5.48C13.6183 6.57349 9.39428 4.78316 7.41899 1.16985C7.15802 0.693996 6.59437 0.475681 6.09203 0.67897Z" fill="white"/>
</svg>
