<svg width="256" height="256" viewBox="0 0 256 256" fill="none" xmlns="http://www.w3.org/2000/svg">
<g filter="url(#filter0_b_138_443)">
<path d="M116 72V160C115.987 172.726 110.925 184.928 101.927 193.927C92.9276 202.925 80.7263 207.987 68 208C65.8783 208 63.8434 207.157 62.3431 205.657C60.8429 204.157 60 202.122 60 200C60 197.878 60.8429 195.843 62.3431 194.343C63.8434 192.843 65.8783 192 68 192C76.4869 192 84.6263 188.629 90.6274 182.627C96.6286 176.626 100 168.487 100 160C100 155.582 96.4183 152 92 152H40C35.7565 152 31.6869 150.314 28.6863 147.314C25.6857 144.313 24 140.243 24 136V72C24 67.7565 25.6857 63.6869 28.6863 60.6863C31.6869 57.6857 35.7565 56 40 56H100C104.243 56 108.313 57.6857 111.314 60.6863C114.314 63.6869 116 67.7565 116 72ZM216 56H156C151.757 56 147.687 57.6857 144.686 60.6863C141.686 63.6869 140 67.7565 140 72V136C140 140.243 141.686 144.313 144.686 147.314C147.687 150.314 151.757 152 156 152H208C212.418 152 216 155.582 216 160C216 168.487 212.629 176.626 206.627 182.627C200.626 188.629 192.487 192 184 192C181.878 192 179.843 192.843 178.343 194.343C176.843 195.843 176 197.878 176 200C176 202.122 176.843 204.157 178.343 205.657C179.843 207.157 181.878 208 184 208C196.726 207.987 208.928 202.925 217.927 193.927C226.925 184.928 231.987 172.726 232 160V72C232 67.7565 230.314 63.6869 227.314 60.6863C224.313 57.6857 220.243 56 216 56Z" fill="#24262A" fill-opacity="0.19"/>
<path d="M115 72V159.999C114.987 172.46 110.031 184.408 101.219 193.219C92.4078 202.031 80.4604 206.987 67.999 207C66.1428 207 64.3628 206.262 63.0503 204.95C61.7375 203.637 61 201.857 61 200C61 198.143 61.7375 196.363 63.0503 195.05C64.363 193.737 66.1435 193 68 193C76.7521 193 85.1458 189.523 91.3345 183.335C97.5232 177.146 101 168.752 101 160C101 155.029 96.9706 151 92 151H40C36.0218 151 32.2064 149.42 29.3934 146.607C26.5804 143.794 25 139.978 25 136V72C25 68.0218 26.5804 64.2064 29.3934 61.3934C32.2064 58.5804 36.0218 57 40 57H100C103.978 57 107.794 58.5804 110.607 61.3934C113.42 64.2064 115 68.0218 115 72ZM156 57H216C219.978 57 223.794 58.5804 226.607 61.3934C229.42 64.2064 231 68.0218 231 72V159.999C230.987 172.46 226.031 184.408 217.219 193.219C208.408 202.031 196.46 206.987 183.999 207C182.143 207 180.363 206.262 179.05 204.95C177.737 203.637 177 201.857 177 200C177 198.143 177.737 196.363 179.05 195.05C180.363 193.737 182.143 193 184 193C192.752 193 201.146 189.523 207.335 183.335C213.523 177.146 217 168.752 217 160C217 155.029 212.971 151 208 151H156C152.022 151 148.206 149.42 145.393 146.607C142.58 143.794 141 139.978 141 136V72C141 68.0218 142.58 64.2064 145.393 61.3934C148.206 58.5804 152.022 57 156 57Z" stroke="url(#paint0_linear_138_443)" stroke-width="2"/>
</g>
<defs>
<filter id="filter0_b_138_443" x="-48.2" y="-16.2" width="352.4" height="296.4" filterUnits="userSpaceOnUse" color-interpolation-filters="sRGB">
<feFlood flood-opacity="0" result="BackgroundImageFix"/>
<feGaussianBlur in="BackgroundImageFix" stdDeviation="36.1"/>
<feComposite in2="SourceAlpha" operator="in" result="effect1_backgroundBlur_138_443"/>
<feBlend mode="normal" in="SourceGraphic" in2="effect1_backgroundBlur_138_443" result="shape"/>
</filter>
<linearGradient id="paint0_linear_138_443" x1="48.2667" y1="83.8667" x2="136.207" y2="229.212" gradientUnits="userSpaceOnUse">
<stop stop-color="#9E23FF"/>
<stop offset="0.505208" stop-color="#5A7FFF"/>
<stop offset="1" stop-color="#79AFFF"/>
</linearGradient>
</defs>
</svg>
