<svg width="21" height="21" viewBox="0 0 21 21" fill="none" xmlns="http://www.w3.org/2000/svg">
<path d="M10.5026 0H10.4974C4.70794 0 0 4.70925 0 10.5C0 12.7969 0.74025 14.9258 1.99894 16.6543L0.690375 20.5551L4.72631 19.2649C6.38663 20.3648 8.36719 21 10.5026 21C16.2921 21 21 16.2894 21 10.5C21 4.71056 16.2921 0 10.5026 0Z" fill="#4CAF50"/>
<path d="M16.6122 14.8276C16.3589 15.5429 15.3535 16.1362 14.5516 16.3094C14.003 16.4262 13.2863 16.5194 10.874 15.5193C7.78829 14.2409 5.80116 11.1054 5.64629 10.9019C5.49798 10.6985 4.39941 9.2416 4.39941 7.73486C4.39941 6.22811 5.1646 5.49442 5.47304 5.17942C5.72635 4.92086 6.14504 4.80273 6.54666 4.80273C6.6766 4.80273 6.79341 4.8093 6.89841 4.81455C7.20685 4.82767 7.36172 4.84605 7.56516 5.33298C7.81847 5.9433 8.43535 7.45004 8.50885 7.60492C8.58366 7.75979 8.65847 7.96979 8.55347 8.17323C8.45504 8.38323 8.36841 8.47642 8.21354 8.65492C8.05866 8.83342 7.91166 8.96992 7.75679 9.16154C7.61504 9.32823 7.45491 9.50673 7.63341 9.81517C7.81191 10.117 8.42879 11.1237 9.33704 11.9322C10.5091 12.9757 11.4593 13.309 11.7993 13.4508C12.0526 13.5558 12.3545 13.5308 12.5395 13.334C12.7745 13.0807 13.0645 12.6607 13.3598 12.2472C13.5698 11.9506 13.835 11.9139 14.1132 12.0189C14.3967 12.1173 15.8969 12.8588 16.2053 13.0124C16.5138 13.1673 16.7172 13.2408 16.792 13.3707C16.8655 13.5007 16.8655 14.111 16.6122 14.8276Z" fill="#FAFAFA"/>
</svg>
